<?xml version="1.0" encoding="utf-8" standalone="no"?>
<!DOCTYPE svg PUBLIC "-//W3C//DTD SVG 1.1//EN"
  "http://www.w3.org/Graphics/SVG/1.1/DTD/svg11.dtd">
<svg xmlns:xlink="http://www.w3.org/1999/xlink" width="486.118125pt" height="348.072937pt" viewBox="0 0 486.118125 348.072937" xmlns="http://www.w3.org/2000/svg" version="1.1">
 <metadata>
  <rdf:RDF xmlns:dc="http://purl.org/dc/elements/1.1/" xmlns:cc="http://creativecommons.org/ns#" xmlns:rdf="http://www.w3.org/1999/02/22-rdf-syntax-ns#">
   <cc:Work>
    <dc:type rdf:resource="http://purl.org/dc/dcmitype/StillImage"/>
    <dc:format>image/svg+xml</dc:format>
    <dc:creator>
     <cc:Agent>
      <dc:title>Matplotlib v3.11.2, https://matplotlib.org/</dc:title>
     </cc:Agent>
    </dc:creator>
   </cc:Work>
  </rdf:RDF>
 </metadata>
 <defs>
  <style type="text/css">*{stroke-linejoin: round; stroke-linecap: butt}</style>
 </defs>
 <g id="figure_1">
  <g id="patch_1">
   <path d="M 0 348.072937 
L 486.118125 348.072937 
L 486.118125 0 
L 0 0 
z
" style="fill: #ffffff"/>
  </g>
  <g id="axes_1">
   <g id="patch_2">
    <path d="M 52.466563 307.872 
L 470.966563 307.872 
L 470.966563 41.76 
L 52.466563 41.76 
z
" style="fill: #ffffff"/>
   </g>
   <g id="patch_3">
    <path d="M 52.466563 58.148129 
L 52.466563 58.148129 
L 73.391563 58.148129 
L 73.391563 56.847484 
L 94.316563 56.847484 
L 94.316563 102.370065 
L 115.241563 102.370065 
L 115.241563 133.585548 
L 136.166562 133.585548 
L 136.166562 150.493935 
L 157.091563 150.493935 
L 157.091563 155.696516 
L 178.016563 155.696516 
L 178.016563 137.487484 
L 198.941563 137.487484 
L 198.941563 177.807484 
L 219.866563 177.807484 
L 219.866563 168.702968 
L 240.791563 168.702968 
L 240.791563 183.010065 
L 261.716563 183.010065 
L 261.716563 180.408774 
L 282.641563 180.408774 
L 282.641563 199.918452 
L 303.566563 199.918452 
L 303.566563 196.016516 
L 324.491563 196.016516 
L 324.491563 190.813935 
L 345.416563 190.813935 
L 345.416563 222.029419 
L 366.341563 222.029419 
L 366.341563 216.826839 
L 387.266563 216.826839 
L 387.266563 220.728774 
L 408.191563 220.728774 
L 408.191563 201.219097 
L 429.116563 201.219097 
L 429.116563 220.728774 
L 450.041563 220.728774 
L 450.041563 166.101677 
L 470.966563 166.101677 
L 470.966563 166.101677 
" clip-path="url(#p7ce5dea9e6)" style="fill: none; stroke: #e69f00; stroke-width: 2; stroke-linejoin: miter"/>
   </g>
   <g id="patch_4">
    <path d="M 52.466563 231.133935 
L 52.466563 231.133935 
L 73.391563 231.133935 
L 73.391563 218.127484 
L 94.316563 218.127484 
L 94.316563 160.899097 
L 115.241563 160.899097 
L 115.241563 205.121032 
L 136.166562 205.121032 
L 136.166562 198.617806 
L 157.091563 198.617806 
L 157.091563 206.421677 
L 178.016563 206.421677 
L 178.016563 194.715871 
L 198.941563 194.715871 
L 198.941563 166.101677 
L 219.866563 166.101677 
L 219.866563 172.604903 
L 240.791563 172.604903 
L 240.791563 158.297806 
L 261.716563 158.297806 
L 261.716563 149.19329 
L 282.641563 149.19329 
L 282.641563 145.291355 
L 303.566563 145.291355 
L 303.566563 132.284903 
L 324.491563 132.284903 
L 324.491563 125.781677 
L 345.416563 125.781677 
L 345.416563 159.598452 
L 366.341563 159.598452 
L 366.341563 155.696516 
L 387.266563 155.696516 
L 387.266563 159.598452 
L 408.191563 159.598452 
L 408.191563 151.794581 
L 429.116563 151.794581 
L 429.116563 146.592 
L 450.041563 146.592 
L 450.041563 101.069419 
L 470.966563 101.069419 
L 470.966563 101.069419 
" clip-path="url(#p7ce5dea9e6)" style="fill: none; stroke-dasharray: 7.4,3.2; stroke-dashoffset: 0; stroke: #56b4e9; stroke-width: 2; stroke-linejoin: miter"/>
   </g>
   <g id="patch_5">
    <path d="M 52.466563 276.656516 
L 52.466563 276.656516 
L 73.391563 276.656516 
L 73.391563 254.545548 
L 94.316563 254.545548 
L 94.316563 223.330065 
L 115.241563 223.330065 
L 115.241563 224.63071 
L 136.166562 224.63071 
L 136.166562 233.735226 
L 157.091563 233.735226 
L 157.091563 227.232 
L 178.016563 227.232 
L 178.016563 194.715871 
L 198.941563 194.715871 
L 198.941563 190.813935 
L 219.866563 190.813935 
L 219.866563 214.225548 
L 240.791563 214.225548 
L 240.791563 128.382968 
L 261.716563 128.382968 
L 261.716563 155.696516 
L 282.641563 155.696516 
L 282.641563 143.99071 
L 303.566563 143.99071 
L 303.566563 115.376516 
L 324.491563 115.376516 
L 324.491563 115.376516 
L 345.416563 115.376516 
L 345.416563 143.99071 
L 366.341563 143.99071 
L 366.341563 119.278452 
L 387.266563 119.278452 
L 387.266563 101.069419 
L 408.191563 101.069419 
L 408.191563 125.781677 
L 429.116563 125.781677 
L 429.116563 97.167484 
L 450.041563 97.167484 
L 450.041563 52.945548 
L 470.966563 52.945548 
L 470.966563 52.945548 
" clip-path="url(#p7ce5dea9e6)" style="fill: none; stroke-dasharray: 12.8,3.2,2,3.2; stroke-dashoffset: 0; stroke: #009e73; stroke-width: 2; stroke-linejoin: miter"/>
   </g>
   <g id="matplotlib.axis_1">
    <g id="xtick_1">
     <g id="line2d_1">
      <defs>
       <path id="me3e84cc0a0" d="M 0 0 
L 0 3.5 
" style="stroke: #000000; stroke-width: 0.8"/>
      </defs>
      <g>
       <use xlink:href="#me3e84cc0a0" x="52.466563" y="307.872" style="stroke: #000000; stroke-width: 0.8"/>
      </g>
     </g>
     <g id="text_1">
      <text style="font-size: 10px; font-family: 'DejaVu Sans', 'Bitstream Vera Sans', 'Computer Modern Sans Serif', 'Lucida Grande', 'Verdana', 'Geneva', 'Lucid', 'Arial', 'Helvetica', 'Avant Garde', sans-serif; text-anchor: middle" x="52.466563" y="322.469656" transform="rotate(-0 52.466563 322.469656)">0.0</text>
     </g>
    </g>
    <g id="xtick_2">
     <g id="line2d_2">
      <g>
       <use xlink:href="#me3e84cc0a0" x="136.166562" y="307.872" style="stroke: #000000; stroke-width: 0.8"/>
      </g>
     </g>
     <g id="text_2">
      <text style="font-size: 10px; font-family: 'DejaVu Sans', 'Bitstream Vera Sans', 'Computer Modern Sans Serif', 'Lucida Grande', 'Verdana', 'Geneva', 'Lucid', 'Arial', 'Helvetica', 'Avant Garde', sans-serif; text-anchor: middle" x="136.166562" y="322.469656" transform="rotate(-0 136.166562 322.469656)">0.2</text>
     </g>
    </g>
    <g id="xtick_3">
     <g id="line2d_3">
      <g>
       <use xlink:href="#me3e84cc0a0" x="219.866563" y="307.872" style="stroke: #000000; stroke-width: 0.8"/>
      </g>
     </g>
     <g id="text_3">
      <text style="font-size: 10px; font-family: 'DejaVu Sans', 'Bitstream Vera Sans', 'Computer Modern Sans Serif', 'Lucida Grande', 'Verdana', 'Geneva', 'Lucid', 'Arial', 'Helvetica', 'Avant Garde', sans-serif; text-anchor: middle" x="219.866563" y="322.469656" transform="rotate(-0 219.866563 322.469656)">0.4</text>
     </g>
    </g>
    <g id="xtick_4">
     <g id="line2d_4">
      <g>
       <use xlink:href="#me3e84cc0a0" x="303.566563" y="307.872" style="stroke: #000000; stroke-width: 0.8"/>
      </g>
     </g>
     <g id="text_4">
      <text style="font-size: 10px; font-family: 'DejaVu Sans', 'Bitstream Vera Sans', 'Computer Modern Sans Serif', 'Lucida Grande', 'Verdana', 'Geneva', 'Lucid', 'Arial', 'Helvetica', 'Avant Garde', sans-serif; text-anchor: middle" x="303.566563" y="322.469656" transform="rotate(-0 303.566563 322.469656)">0.6</text>
     </g>
    </g>
    <g id="xtick_5">
     <g id="line2d_5">
      <g>
       <use xlink:href="#me3e84cc0a0" x="387.266563" y="307.872" style="stroke: #000000; stroke-width: 0.8"/>
      </g>
     </g>
     <g id="text_5">
      <text style="font-size: 10px; font-family: 'DejaVu Sans', 'Bitstream Vera Sans', 'Computer Modern Sans Serif', 'Lucida Grande', 'Verdana', 'Geneva', 'Lucid', 'Arial', 'Helvetica', 'Avant Garde', sans-serif; text-anchor: middle" x="387.266563" y="322.469656" transform="rotate(-0 387.266563 322.469656)">0.8</text>
     </g>
    </g>
    <g id="xtick_6">
     <g id="line2d_6">
      <g>
       <use xlink:href="#me3e84cc0a0" x="470.966563" y="307.872" style="stroke: #000000; stroke-width: 0.8"/>
      </g>
     </g>
     <g id="text_6">
      <text style="font-size: 10px; font-family: 'DejaVu Sans', 'Bitstream Vera Sans', 'Computer Modern Sans Serif', 'Lucida Grande', 'Verdana', 'Geneva', 'Lucid', 'Arial', 'Helvetica', 'Avant Garde', sans-serif; text-anchor: middle" x="470.966563" y="322.469656" transform="rotate(-0 470.966563 322.469656)">1.0</text>
     </g>
    </g>
    <g id="text_7">
     <text style="font-size: 12px; font-family: 'DejaVu Sans', 'Bitstream Vera Sans', 'Computer Modern Sans Serif', 'Lucida Grande', 'Verdana', 'Geneva', 'Lucid', 'Arial', 'Helvetica', 'Avant Garde', sans-serif; text-anchor: middle" x="261.716563" y="337.990125" transform="rotate(-0 261.716563 337.990125)">raw p-value</text>
    </g>
   </g>
   <g id="matplotlib.axis_2">
    <g id="ytick_1">
     <g id="line2d_7">
      <defs>
       <path id="m759bf94a67" d="M 0 0 
L -3.5 0 
" style="stroke: #000000; stroke-width: 0.8"/>
      </defs>
      <g>
       <use xlink:href="#m759bf94a67" x="52.466563" y="307.872" style="stroke: #000000; stroke-width: 0.8"/>
      </g>
     </g>
     <g id="text_8">
      <text style="font-size: 10px; font-family: 'DejaVu Sans', 'Bitstream Vera Sans', 'Computer Modern Sans Serif', 'Lucida Grande', 'Verdana', 'Geneva', 'Lucid', 'Arial', 'Helvetica', 'Avant Garde', sans-serif; text-anchor: end" x="45.466563" y="311.670828" transform="rotate(-0 45.466563 311.670828)">0.00</text>
     </g>
    </g>
    <g id="ytick_2">
     <g id="line2d_8">
      <g>
       <use xlink:href="#m759bf94a67" x="52.466563" y="272.640774" style="stroke: #000000; stroke-width: 0.8"/>
      </g>
     </g>
     <g id="text_9">
      <text style="font-size: 10px; font-family: 'DejaVu Sans', 'Bitstream Vera Sans', 'Computer Modern Sans Serif', 'Lucida Grande', 'Verdana', 'Geneva', 'Lucid', 'Arial', 'Helvetica', 'Avant Garde', sans-serif; text-anchor: end" x="45.466563" y="276.439602" transform="rotate(-0 45.466563 276.439602)">0.25</text>
     </g>
    </g>
    <g id="ytick_3">
     <g id="line2d_9">
      <g>
       <use xlink:href="#m759bf94a67" x="52.466563" y="237.409548" style="stroke: #000000; stroke-width: 0.8"/>
      </g>
     </g>
     <g id="text_10">
      <text style="font-size: 10px; font-family: 'DejaVu Sans', 'Bitstream Vera Sans', 'Computer Modern Sans Serif', 'Lucida Grande', 'Verdana', 'Geneva', 'Lucid', 'Arial', 'Helvetica', 'Avant Garde', sans-serif; text-anchor: end" x="45.466563" y="241.208377" transform="rotate(-0 45.466563 241.208377)">0.50</text>
     </g>
    </g>
    <g id="ytick_4">
     <g id="line2d_10">
      <g>
       <use xlink:href="#m759bf94a67" x="52.466563" y="202.178323" style="stroke: #000000; stroke-width: 0.8"/>
      </g>
     </g>
     <g id="text_11">
      <text style="font-size: 10px; font-family: 'DejaVu Sans', 'Bitstream Vera Sans', 'Computer Modern Sans Serif', 'Lucida Grande', 'Verdana', 'Geneva', 'Lucid', 'Arial', 'Helvetica', 'Avant Garde', sans-serif; text-anchor: end" x="45.466563" y="205.977151" transform="rotate(-0 45.466563 205.977151)">0.75</text>
     </g>
    </g>
    <g id="ytick_5">
     <g id="line2d_11">
      <g>
       <use xlink:href="#m759bf94a67" x="52.466563" y="166.947097" style="stroke: #000000; stroke-width: 0.8"/>
      </g>
     </g>
     <g id="text_12">
      <text style="font-size: 10px; font-family: 'DejaVu Sans', 'Bitstream Vera Sans', 'Computer Modern Sans Serif', 'Lucida Grande', 'Verdana', 'Geneva', 'Lucid', 'Arial', 'Helvetica', 'Avant Garde', sans-serif; text-anchor: end" x="45.466563" y="170.745925" transform="rotate(-0 45.466563 170.745925)">1.00</text>
     </g>
    </g>
    <g id="ytick_6">
     <g id="line2d_12">
      <g>
       <use xlink:href="#m759bf94a67" x="52.466563" y="131.715871" style="stroke: #000000; stroke-width: 0.8"/>
      </g>
     </g>
     <g id="text_13">
      <text style="font-size: 10px; font-family: 'DejaVu Sans', 'Bitstream Vera Sans', 'Computer Modern Sans Serif', 'Lucida Grande', 'Verdana', 'Geneva', 'Lucid', 'Arial', 'Helvetica', 'Avant Garde', sans-serif; text-anchor: end" x="45.466563" y="135.514699" transform="rotate(-0 45.466563 135.514699)">1.25</text>
     </g>
    </g>
    <g id="ytick_7">
     <g id="line2d_13">
      <g>
       <use xlink:href="#m759bf94a67" x="52.466563" y="96.484645" style="stroke: #000000; stroke-width: 0.8"/>
      </g>
     </g>
     <g id="text_14">
      <text style="font-size: 10px; font-family: 'DejaVu Sans', 'Bitstream Vera Sans', 'Computer Modern Sans Serif', 'Lucida Grande', 'Verdana', 'Geneva', 'Lucid', 'Arial', 'Helvetica', 'Avant Garde', sans-serif; text-anchor: end" x="45.466563" y="100.283473" transform="rotate(-0 45.466563 100.283473)">1.50</text>
     </g>
    </g>
    <g id="ytick_8">
     <g id="line2d_14">
      <g>
       <use xlink:href="#m759bf94a67" x="52.466563" y="61.253419" style="stroke: #000000; stroke-width: 0.8"/>
      </g>
     </g>
     <g id="text_15">
      <text style="font-size: 10px; font-family: 'DejaVu Sans', 'Bitstream Vera Sans', 'Computer Modern Sans Serif', 'Lucida Grande', 'Verdana', 'Geneva', 'Lucid', 'Arial', 'Helvetica', 'Avant Garde', sans-serif; text-anchor: end" x="45.466563" y="65.052247" transform="rotate(-0 45.466563 65.052247)">1.75</text>
     </g>
    </g>
    <g id="text_16">
     <text style="font-size: 12px; font-family: 'DejaVu Sans', 'Bitstream Vera Sans', 'Computer Modern Sans Serif', 'Lucida Grande', 'Verdana', 'Geneva', 'Lucid', 'Arial', 'Helvetica', 'Avant Garde', sans-serif; text-anchor: middle" x="16.318125" y="174.816" transform="rotate(-90 16.318125 174.816)">density (uniform = 1)</text>
    </g>
   </g>
   <g id="line2d_15">
    <path d="M 52.466563 166.947097 
L 470.966563 166.947097 
" clip-path="url(#p7ce5dea9e6)" style="fill: none; stroke-dasharray: 1.2,2.4; stroke-dashoffset: 0; stroke: #404040; stroke-width: 1.2"/>
   </g>
   <g id="patch_6">
    <path d="M 52.466563 307.872 
L 52.466563 41.76 
" style="fill: none; stroke: #000000; stroke-width: 0.8; stroke-linejoin: miter; stroke-linecap: square"/>
   </g>
   <g id="patch_7">
    <path d="M 52.466563 307.872 
L 470.966563 307.872 
" style="fill: none; stroke: #000000; stroke-width: 0.8; stroke-linejoin: miter; stroke-linecap: square"/>
   </g>
  </g>
  <g id="text_17">
   <text style="font-weight: 700; font-size: 12px; font-family: 'DejaVu Sans', 'Bitstream Vera Sans', 'Computer Modern Sans Serif', 'Lucida Grande', 'Verdana', 'Geneva', 'Lucid', 'Arial', 'Helvetica', 'Avant Garde', sans-serif" transform="translate(52.720625 17.519297)">PSM count: raw p-value by design · raloxifene-d0 vs control</text>
   <text style="font-weight: 700; font-size: 12px; font-family: 'DejaVu Sans', 'Bitstream Vera Sans', 'Computer Modern Sans Serif', 'Lucida Grande', 'Verdana', 'Geneva', 'Lucid', 'Arial', 'Helvetica', 'Avant Garde', sans-serif" transform="translate(57.014375 31.922578)">PSM counts log2, unnormalized · n = 2,167 protein groups</text>
  </g>
 </g>
 <defs>
  <clipPath id="p7ce5dea9e6">
   <rect x="52.466563" y="41.76" width="418.5" height="266.112"/>
  </clipPath>
 </defs>
</svg>
