<?xml version="1.0" encoding="utf-8" standalone="no"?>
<!DOCTYPE svg PUBLIC "-//W3C//DTD SVG 1.1//EN"
  "http://www.w3.org/Graphics/SVG/1.1/DTD/svg11.dtd">
<svg xmlns:xlink="http://www.w3.org/1999/xlink" width="355.407812pt" height="92.403906pt" viewBox="0 0 355.407812 92.403906" xmlns="http://www.w3.org/2000/svg" version="1.1">
 <metadata>
  <rdf:RDF xmlns:dc="http://purl.org/dc/elements/1.1/" xmlns:cc="http://creativecommons.org/ns#" xmlns:rdf="http://www.w3.org/1999/02/22-rdf-syntax-ns#">
   <cc:Work>
    <dc:type rdf:resource="http://purl.org/dc/dcmitype/StillImage"/>
    <dc:format>image/svg+xml</dc:format>
    <dc:creator>
     <cc:Agent>
      <dc:title>Matplotlib v3.11.2, https://matplotlib.org/</dc:title>
     </cc:Agent>
    </dc:creator>
   </cc:Work>
  </rdf:RDF>
 </metadata>
 <defs>
  <style type="text/css">*{stroke-linejoin: round; stroke-linecap: butt}</style>
 </defs>
 <g id="figure_1">
  <g id="patch_1">
   <path d="M 0 92.403906 
L 355.407812 92.403906 
L 355.407812 0 
L 0 0 
z
" style="fill: #ffffff"/>
  </g>
  <g id="legend_1">
   <g id="line2d_1">
    <defs>
     <path id="m4ef0ab22a0" d="M 0 4 
C 1.060812 4 2.078319 3.578535 2.828427 2.828427 
C 3.578535 2.078319 4 1.060812 4 0 
C 4 -1.060812 3.578535 -2.078319 2.828427 -2.828427 
C 2.078319 -3.578535 1.060812 -4 0 -4 
C -1.060812 -4 -2.078319 -3.578535 -2.828427 -2.828427 
C -3.578535 -2.078319 -4 -1.060812 -4 0 
C -4 1.060812 -3.578535 2.078319 -2.828427 2.828427 
C -2.078319 3.578535 -1.060812 4 0 4 
z
" style="stroke: #000000; stroke-width: 0.5"/>
    </defs>
    <g>
     <use xlink:href="#m4ef0ab22a0" x="22.2" y="15.298438" style="fill: #404040; stroke: #000000; stroke-width: 0.5"/>
    </g>
   </g>
   <g id="text_1">
    <text style="font-size: 10px; font-family: 'DejaVu Sans', 'Bitstream Vera Sans', 'Computer Modern Sans Serif', 'Lucida Grande', 'Verdana', 'Geneva', 'Lucid', 'Arial', 'Helvetica', 'Avant Garde', sans-serif; text-anchor: start" x="41.2" y="18.798438" transform="rotate(-0 41.2 18.798438)">protein LFQ (a, b)</text>
   </g>
   <g id="line2d_2">
    <defs>
     <path id="ma39bb92857" d="M -0 5.656854 
L 5.656854 0 
L 0 -5.656854 
L -5.656854 -0 
z
" style="stroke: #404040; stroke-width: 1.6; stroke-linejoin: miter"/>
    </defs>
    <g>
     <use xlink:href="#ma39bb92857" x="22.2" y="30.299219" style="fill: #ffffff; stroke: #404040; stroke-width: 1.6; stroke-linejoin: miter"/>
    </g>
   </g>
   <g id="text_2">
    <text style="font-size: 10px; font-family: 'DejaVu Sans', 'Bitstream Vera Sans', 'Computer Modern Sans Serif', 'Lucida Grande', 'Verdana', 'Geneva', 'Lucid', 'Arial', 'Helvetica', 'Avant Garde', sans-serif; text-anchor: start" x="41.2" y="33.799219" transform="rotate(-0 41.2 33.799219)">LFQ per unique peptide: LFQ − log2 n unique peptides (a, b)</text>
   </g>
   <g id="line2d_3">
    <path d="M 11.2 45.3 
L 22.2 45.3 
L 33.2 45.3 
" style="fill: none; stroke: #009e73; stroke-width: 2.2; stroke-linecap: square"/>
   </g>
   <g id="text_3">
    <text style="font-size: 10px; font-family: 'DejaVu Sans', 'Bitstream Vera Sans', 'Computer Modern Sans Serif', 'Lucida Grande', 'Verdana', 'Geneva', 'Lucid', 'Arial', 'Helvetica', 'Avant Garde', sans-serif; text-anchor: start" x="41.2" y="48.8" transform="rotate(-0 41.2 48.8)">PSM</text>
   </g>
   <g id="line2d_4">
    <path d="M 11.2 60.300781 
L 22.2 60.300781 
L 33.2 60.300781 
" style="fill: none; stroke: #e69f00; stroke-width: 2.2; stroke-linecap: square"/>
   </g>
   <g id="text_4">
    <text style="font-size: 10px; font-family: 'DejaVu Sans', 'Bitstream Vera Sans', 'Computer Modern Sans Serif', 'Lucida Grande', 'Verdana', 'Geneva', 'Lucid', 'Arial', 'Helvetica', 'Avant Garde', sans-serif; text-anchor: start" x="41.2" y="63.800781" transform="rotate(-0 41.2 63.800781)">NSAF</text>
   </g>
   <g id="line2d_5">
    <path d="M 11.2 75.301563 
L 22.2 75.301563 
L 33.2 75.301563 
" style="fill: none; stroke-dasharray: 4.07,1.76; stroke-dashoffset: 0; stroke: #808080; stroke-width: 1.1"/>
   </g>
   <g id="text_5">
    <text style="font-size: 10px; font-family: 'DejaVu Sans', 'Bitstream Vera Sans', 'Computer Modern Sans Serif', 'Lucida Grande', 'Verdana', 'Geneva', 'Lucid', 'Arial', 'Helvetica', 'Avant Garde', sans-serif; text-anchor: start" x="41.2" y="78.801563" transform="rotate(-0 41.2 78.801563)">slope 1</text>
   </g>
  </g>
 </g>
</svg>
